<svg width="39" height="39" viewBox="0 0 39 39" fill="none" xmlns="http://www.w3.org/2000/svg">
<path d="M18.4717 17.8052C18.0299 17.9918 17.6757 18.2698 17.4129 18.6431C17.1501 19.0163 17.0168 19.4657 17.0168 19.9951C17.0168 20.673 17.3024 21.1948 17.8699 21.5643C18.4069 21.9108 18.9706 21.9984 19.5609 21.8232C20.2427 21.6252 20.7035 21.1415 20.9473 20.3722C21.0615 20.018 21.1187 19.6219 21.1187 19.1801V17.2682C20.6388 17.2834 20.1894 17.3291 19.7666 17.4091C19.3438 17.4891 18.9135 17.6224 18.4717 17.8052ZM19.5 2.4375C10.0775 2.4375 2.4375 10.0775 2.4375 19.5C2.4375 28.9225 10.0775 36.5625 19.5 36.5625C28.9225 36.5625 36.5625 28.9225 36.5625 19.5C36.5625 10.0775 28.9225 2.4375 19.5 2.4375ZM20.8635 12.4427C20.5893 12.0275 20.0979 11.8181 19.3896 11.8181C19.34 11.8181 19.2753 11.8219 19.1877 11.8295C19.1039 11.8371 18.9363 11.8866 18.6964 11.9704C18.4554 12.0566 18.2263 12.1731 18.0146 12.317C17.8052 12.4617 17.5767 12.6979 17.3291 13.0178C17.0854 13.3415 16.8911 13.7186 16.7464 14.1527L13.1663 13.8328C13.1663 13.3605 13.2577 12.8921 13.4329 12.4274C13.6119 11.9628 13.8823 11.5172 14.2479 11.0944C14.6136 10.6679 15.0516 10.2946 15.5619 9.97471C16.0723 9.65098 16.6893 9.3958 17.4053 9.20156C18.1251 9.00732 18.8944 8.91211 19.7247 8.91211C20.5359 8.91211 21.271 9.01113 21.9261 9.20537C22.5812 9.40342 23.1105 9.64336 23.5028 9.93281C23.8808 10.2055 24.2137 10.5358 24.4893 10.9116C24.7521 11.2772 24.9349 11.6162 25.0377 11.9285C25.1405 12.2408 25.19 12.5265 25.19 12.7969V19.7476C25.19 19.9913 25.2434 20.2427 25.3538 20.5017C25.4643 20.7606 25.5938 20.9892 25.7423 21.1872C25.8908 21.3853 26.0432 21.5643 26.1993 21.7318C26.3555 21.8956 26.4888 22.0251 26.603 22.1089L26.7592 22.2384L23.9979 24.8815C23.6742 24.5883 23.3543 24.295 23.0382 23.9903C22.7221 23.6856 22.4859 23.4571 22.3336 23.301L22.1013 23.0648C22.0099 22.9772 21.9108 22.8478 21.7966 22.6764C21.4881 23.141 21.092 23.5447 20.6121 23.8875C20.1284 24.2303 19.6104 24.4816 19.062 24.6378C18.5098 24.7939 17.9423 24.8854 17.3596 24.9082C16.7769 24.9311 16.217 24.8511 15.6876 24.6606C15.1582 24.4702 14.6783 24.215 14.2556 23.8875C13.8328 23.56 13.4977 23.1182 13.2463 22.5545C12.9949 21.9908 12.8692 21.3548 12.8692 20.635C12.8692 19.9723 12.9835 19.3667 13.2082 18.8183C13.4367 18.266 13.7262 17.809 14.0842 17.4434C14.4422 17.0777 14.8726 16.7502 15.3791 16.4646C15.8856 16.1789 16.3846 15.9542 16.8721 15.7904C17.3596 15.6305 17.8852 15.4934 18.4526 15.3829C19.0201 15.2725 19.5038 15.2001 19.9075 15.1658C20.3112 15.1315 20.7149 15.1049 21.1187 15.0896V13.5891C21.1187 13.0749 21.0311 12.694 20.8635 12.4427ZM27.738 26.9001C27.6313 27.0258 27.4523 27.1972 27.201 27.4143C26.9496 27.6313 26.5611 27.8979 26.0394 28.2179C25.5176 28.5378 24.9425 28.8272 24.3255 29.09C23.7047 29.3528 22.943 29.5813 22.0365 29.7756C21.1339 29.9698 20.2008 30.065 19.2448 30.065C18.2774 30.065 17.3139 29.9432 16.3465 29.6994C15.3791 29.4557 14.5336 29.1548 13.8023 28.7968C13.0749 28.4388 12.3703 28.0274 11.7038 27.5704C11.0335 27.1096 10.4965 26.6982 10.089 26.3326C9.68525 25.967 9.34248 25.6204 9.06826 25.3005C9.00352 25.2281 8.96162 25.1634 8.94639 25.1063C8.93115 25.0491 8.93496 24.9996 8.95781 24.9653C8.98066 24.9311 9.01494 24.9044 9.05684 24.8815C9.10233 24.8613 9.15236 24.8535 9.20185 24.8589C9.25134 24.8642 9.29854 24.8826 9.33867 24.912C10.8964 25.8337 12.1151 26.485 12.9911 26.8696C16.1484 28.256 19.3896 28.6102 22.7145 27.9322C24.2569 27.6161 25.8413 27.0867 27.4714 26.3402C27.5933 26.2945 27.6999 26.2831 27.7875 26.306C27.8751 26.3288 27.9208 26.3974 27.9208 26.5116C27.9208 26.6183 27.8599 26.7516 27.738 26.9001ZM30.0193 25.7956C29.9508 26.2184 29.8327 26.6183 29.6728 27.0067C29.3985 27.658 29.052 28.1493 28.6406 28.4692C28.5035 28.5797 28.3969 28.614 28.3245 28.5759C28.2521 28.5378 28.2521 28.4426 28.3245 28.294C28.4959 27.9398 28.6749 27.4638 28.8653 26.8582C29.0558 26.2564 29.0824 25.868 28.9453 25.6966C28.9034 25.6395 28.8425 25.5976 28.7549 25.5595C28.6711 25.5252 28.5606 25.5023 28.4273 25.4871C28.294 25.4719 28.1722 25.4643 28.0693 25.4566C27.9627 25.449 27.8218 25.449 27.6428 25.4566C27.4638 25.4643 27.3381 25.4719 27.2581 25.4795C27.0412 25.5007 26.8241 25.5197 26.6068 25.5366C26.5573 25.5442 26.504 25.5519 26.4507 25.5557C26.3936 25.5595 26.3479 25.5633 26.3174 25.5671L26.2146 25.5785C26.1765 25.5823 26.1498 25.5861 26.1308 25.5861H26.0089L25.9708 25.5785L25.9479 25.5595L25.9289 25.5252C25.8794 25.3995 26.0698 25.2434 26.5002 25.0529C26.9306 24.8625 27.3495 24.7444 27.7532 24.6987C28.1265 24.6416 28.5645 24.6416 29.0672 24.6873C29.5699 24.733 29.8784 24.8282 29.9927 24.9691C30.0803 25.1024 30.0879 25.3767 30.0193 25.7956Z" fill="black"/>
</svg>
