<svg width="32" height="33" viewBox="0 0 32 33" fill="none" xmlns="http://www.w3.org/2000/svg">
<g clip-path="url(#clip0_123_205)">
<path d="M16 0.5C7.161 0.5 0 7.661 0 16.5C0 25.339 7.161 32.5 16 32.5C24.839 32.5 32 25.339 32 16.5C32 7.661 24.839 0.5 16 0.5ZM9.281 10.74C10.286 10.74 11.068 11.473 11.156 12.339C11.251 13.12 10.927 13.803 10.063 14.214C9.604 14.443 9.422 14.443 9.328 14.307C9.281 14.214 9.328 14.126 9.421 14.031C10.245 13.35 10.245 12.798 10.15 12.022C10.103 11.517 9.739 11.198 9.374 11.198C7.77 11.198 5.489 14.761 5.806 17.37C5.947 18.375 6.541 19.563 7.817 19.563C8.229 19.563 8.688 19.427 9.098 19.246C9.765 18.891 10.166 18.621 10.562 18.178C10.463 16.995 11.499 15.449 13.03 15.449C13.718 15.449 14.265 15.725 14.311 16.23C14.4 16.913 13.806 17.006 13.624 17.006C13.441 17.006 13.119 16.959 13.119 16.777C13.078 16.594 13.53 16.684 13.488 16.272C13.441 15.996 13.165 15.908 12.895 15.908C11.931 15.908 11.384 17.236 11.52 18.053C11.567 18.422 11.748 18.788 12.119 18.788C12.39 18.788 12.802 18.376 12.936 17.783C13.029 17.371 13.395 17.095 13.717 17.095C13.853 17.095 13.941 17.142 13.988 17.324V17.507C13.947 17.69 13.805 18.242 13.853 18.376C13.853 18.471 13.9 18.605 14.081 18.605C14.201 18.605 14.66 18.365 15.118 17.99C15.269 17.203 15.451 16.261 15.451 16.183C15.498 15.86 15.634 15.542 16.274 15.542C16.414 15.542 16.503 15.589 16.55 15.771V15.954L16.367 16.777C16.962 16.001 17.831 15.454 18.378 15.454C18.607 15.454 18.79 15.589 18.79 15.818C18.79 15.954 18.79 16.183 18.695 16.413C18.514 16.913 18.284 17.694 18.148 18.376C18.148 18.559 18.195 18.741 18.424 18.741C18.653 18.741 19.336 18.47 19.883 17.736L19.894 17.731C19.894 17.642 19.883 17.554 19.883 17.466C19.883 16.914 19.93 16.461 20.024 16.138C20.117 15.773 20.571 15.455 20.847 15.455C20.982 15.455 21.123 15.543 21.123 15.679C21.123 15.726 21.123 15.819 21.076 15.862C20.893 16.461 20.752 17.007 20.752 17.554C20.752 17.877 20.8 18.33 20.893 18.606C20.893 18.653 20.934 18.699 20.981 18.699C21.076 18.699 21.716 18.106 22.169 17.324C21.757 17.053 21.528 16.595 21.528 16.048C21.528 15.085 22.128 14.584 22.675 14.584C23.134 14.584 23.498 14.903 23.498 15.543C23.498 15.955 23.362 16.414 23.134 16.824H23.269C23.561 16.835 23.848 16.715 24.045 16.507C24.0885 16.4374 24.1524 16.3829 24.228 16.351C24.676 15.783 25.332 15.362 26.108 15.362C26.748 15.362 27.337 15.638 27.384 16.138C27.477 16.825 26.879 16.961 26.696 16.961C26.515 16.961 26.192 16.914 26.192 16.732C26.192 16.55 26.603 16.639 26.561 16.232C26.514 15.956 26.238 15.863 25.962 15.863C25.05 15.863 24.457 17.05 24.591 18.014C24.638 18.378 24.82 18.79 25.186 18.79C25.462 18.79 25.873 18.378 26.055 17.785C26.143 17.421 26.514 17.097 26.831 17.097C26.971 17.097 27.06 17.144 27.107 17.326C27.107 17.421 27.107 17.602 26.924 18.197C26.695 18.608 26.695 18.837 26.743 19.02C26.784 19.384 26.967 19.66 27.154 19.796C27.1874 19.8384 27.2172 19.8836 27.243 19.931C27.243 20.026 27.195 20.119 27.06 20.119C27.013 20.119 26.971 20.119 26.924 20.072C26.237 19.796 25.961 19.337 25.872 18.879C25.596 19.202 25.279 19.384 24.909 19.384C24.314 19.384 23.726 18.837 23.633 18.149C23.6046 17.8572 23.6383 17.5628 23.732 17.285C23.461 17.457 23.169 17.556 22.899 17.556H22.675C22.076 18.425 21.435 19.02 20.982 19.291C20.826 19.3741 20.6536 19.4219 20.477 19.431C20.389 19.431 20.249 19.384 20.206 19.291C20.077 19.088 19.998 18.77 19.946 18.406C19.305 19.103 18.419 19.478 18.009 19.478C17.55 19.478 17.28 19.202 17.233 18.745V18.245C17.368 17.24 17.738 16.641 17.738 16.458C17.7353 16.4339 17.7244 16.4115 17.7071 16.3946C17.6898 16.3776 17.6671 16.3672 17.643 16.365C17.326 16.365 16.274 17.464 16.091 18.198L15.951 18.791C15.862 19.202 15.451 19.478 15.175 19.478C15.039 19.478 14.946 19.431 14.904 19.25V19.067L14.961 18.755C14.382 19.166 13.804 19.431 13.528 19.431C13.117 19.431 12.888 19.202 12.847 18.879C12.571 19.25 12.252 19.431 11.842 19.431C11.367 19.431 10.91 19.108 10.691 18.64C10.362 19.009 9.992 19.379 9.555 19.66C8.915 20.072 8.186 20.389 7.315 20.389C6.539 20.389 5.852 19.977 5.487 19.613C4.935 19.108 4.618 18.332 4.571 17.602C4.3 15.363 5.67 12.482 7.768 11.201C8.273 10.925 8.779 10.744 9.279 10.744L9.281 10.74ZM22.307 15.131C22.172 15.131 22.079 15.36 22.079 15.583C22.079 15.954 22.26 16.364 22.49 16.594C22.5817 16.3438 22.6294 16.0795 22.631 15.813C22.631 15.361 22.448 15.132 22.307 15.132V15.131Z" fill="black"/>
</g>
<defs>
<clipPath id="clip0_123_205">
<rect width="32" height="32" fill="white" transform="translate(0 0.5)"/>
</clipPath>
</defs>
</svg>
