<svg width="31" height="31" viewBox="0 0 31 31" fill="none" xmlns="http://www.w3.org/2000/svg">
<g clip-path="url(#clip0_123_177)">
<path d="M0 0H30.9884V30.9884H0V0Z" fill="black"/>
<path d="M17.1561 4.99812L17.148 9.6434L17.1397 14.2887L16.7576 13.2103L16.7568 13.2083L16.263 23.5499C16.7486 24.9212 17.0087 25.6532 17.0116 25.6561C17.0154 25.66 17.2922 25.6767 17.6265 25.6933C18.6396 25.7435 19.8951 25.8512 20.8475 25.9696C21.068 25.997 21.2578 26.011 21.2693 26.0007C21.2807 25.9906 21.2868 21.2608 21.2831 15.4902L21.2761 4.99812H17.1561ZM9.70423 4.98419V15.4869C9.70423 21.2634 9.70992 25.9953 9.71682 26.0022C9.72372 26.0091 10.0814 25.9753 10.5118 25.9271C10.942 25.8789 11.5369 25.819 11.8334 25.7939C12.2882 25.7555 13.6462 25.6682 13.8034 25.6672C13.8491 25.667 13.8521 25.4311 13.8587 21.2189L13.8657 16.7706L14.1943 17.7002L14.3105 18.0288L14.8042 7.68967L14.6346 7.21014C14.3812 6.49343 14.1275 5.7768 13.8737 5.06024L13.8465 4.98419H9.70423Z" fill="#B1060F" stroke="black" stroke-width="0.357953"/>
<path d="M9.70423 4.98419V10.8796L13.8573 21.8963C13.8577 21.6438 13.8582 21.5074 13.8587 21.2189L13.8657 16.7706L14.1943 17.7002C16.0233 22.8756 17.0058 25.6503 17.0116 25.6561C17.0154 25.66 17.2922 25.6767 17.6265 25.6933C18.6396 25.7435 19.8951 25.8512 20.8475 25.9696C21.068 25.997 21.2578 26.011 21.2693 26.0007C21.277 25.9937 21.2822 23.6745 21.2836 20.4029L17.1499 8.5188L17.148 9.6434L17.1397 14.2887L16.7576 13.2103C16.3841 12.1567 16.1348 11.4521 14.6346 7.21014C14.3812 6.49343 14.1275 5.7768 13.8737 5.06024L13.8465 4.98419H9.70423Z" fill="url(#paint0_radial_123_177)"/>
<path d="M9.70431 4.98419L13.8657 16.7759V16.7706L14.1942 17.7002C16.0232 22.8756 17.0058 25.6503 17.0116 25.6561C17.0153 25.66 17.2922 25.6767 17.6265 25.6933C18.6396 25.7435 19.8951 25.8512 20.8475 25.9696C21.0669 25.9969 21.2556 26.0108 21.2689 26.0009L17.1396 14.2866V14.2887L16.7574 13.2103C16.384 12.1567 16.1346 11.4521 14.6344 7.21014C14.2309 6.06943 13.8886 5.10214 13.8736 5.06024L13.8463 4.98419H9.70431Z" fill="#E50914"/>
<path d="M17.1561 4.99812L17.148 9.6434L17.1397 14.2887L16.7576 13.2103L16.7568 13.2083L16.263 23.5499C16.7486 24.9212 17.0087 25.6532 17.0116 25.6561C17.0154 25.66 17.2922 25.6767 17.6265 25.6933C18.6396 25.7435 19.8951 25.8512 20.8475 25.9696C21.068 25.997 21.2578 26.011 21.2693 26.0007C21.2807 25.9906 21.2868 21.2608 21.2831 15.4902L21.2761 4.99812H17.1561ZM9.70423 4.98419V15.4869C9.70423 21.2634 9.70992 25.9953 9.71682 26.0022C9.72372 26.0091 10.0814 25.9753 10.5118 25.9271C10.942 25.8789 11.5369 25.819 11.8334 25.7939C12.2882 25.7555 13.6462 25.6682 13.8034 25.6672C13.8491 25.667 13.8521 25.4311 13.8587 21.2189L13.8657 16.7706L14.1943 17.7002L14.3105 18.0288L14.8042 7.68967L14.6346 7.21014C14.3812 6.49343 14.1275 5.7768 13.8737 5.06024L13.8465 4.98419H9.70423Z" fill="#B1060F" stroke="black" stroke-width="0.357953"/>
<path d="M9.70423 4.98419V10.8796L13.8573 21.8963C13.8577 21.6438 13.8582 21.5074 13.8587 21.2189L13.8657 16.7706L14.1943 17.7002C16.0233 22.8756 17.0058 25.6503 17.0116 25.6561C17.0154 25.66 17.2922 25.6767 17.6265 25.6933C18.6396 25.7435 19.8951 25.8512 20.8475 25.9696C21.068 25.997 21.2578 26.011 21.2693 26.0007C21.277 25.9937 21.2822 23.6745 21.2836 20.4029L17.1499 8.5188L17.148 9.6434L17.1397 14.2887L16.7576 13.2103C16.3841 12.1567 16.1348 11.4521 14.6346 7.21014C14.3812 6.49343 14.1275 5.7768 13.8737 5.06024L13.8465 4.98419H9.70423Z" fill="url(#paint1_radial_123_177)"/>
<path d="M9.70431 4.98419L13.8657 16.7759V16.7706L14.1942 17.7002C16.0232 22.8756 17.0058 25.6503 17.0116 25.6561C17.0153 25.66 17.2922 25.6767 17.6265 25.6933C18.6396 25.7435 19.8951 25.8512 20.8475 25.9696C21.0669 25.9969 21.2556 26.0108 21.2689 26.0009L17.1396 14.2866V14.2887L16.7574 13.2103C16.384 12.1567 16.1346 11.4521 14.6344 7.21014C14.2309 6.06943 13.8886 5.10214 13.8736 5.06024L13.8463 4.98419H9.70431Z" fill="#E50914"/>
</g>
<defs>
<radialGradient id="paint0_radial_123_177" cx="0" cy="0" r="1" gradientUnits="userSpaceOnUse" gradientTransform="translate(569.45 575.018) scale(815.626 815.634)">
<stop/>
<stop offset="1" stop-opacity="0"/>
</radialGradient>
<radialGradient id="paint1_radial_123_177" cx="0" cy="0" r="1" gradientUnits="userSpaceOnUse" gradientTransform="translate(569.45 575.018) scale(815.626 815.634)">
<stop/>
<stop offset="1" stop-opacity="0"/>
</radialGradient>
<clipPath id="clip0_123_177">
<rect width="31" height="31" rx="4" fill="white"/>
</clipPath>
</defs>
</svg>
